<svg xmlns="http://www.w3.org/2000/svg" width="438.591" height="438.591" viewBox="0 0 438.591 438.591">
    <path id="Pfad_280" data-name="Pfad 280" d="M70,0H287a70,70,0,0,1,70,70V287a70,70,0,0,1-70,70H70A70,70,0,0,1,0,287V70A70,70,0,0,1,70,0Z" transform="translate(40.795 40.795)" fill="#f5f0f1"/>
    <path id="Vereinigungsmenge_8" data-name="Vereinigungsmenge 8" d="M86,438.591A85.594,85.594,0,0,1,37.916,423.9,86.251,86.251,0,0,1,6.758,386.067,85.452,85.452,0,0,1,0,352.593V86A85.594,85.594,0,0,1,14.687,37.916,86.251,86.251,0,0,1,52.524,6.758,85.456,85.456,0,0,1,86,0H352.593a85.594,85.594,0,0,1,48.082,14.687,86.251,86.251,0,0,1,31.158,37.837A85.456,85.456,0,0,1,438.591,86V352.593A85.595,85.595,0,0,1,423.9,400.675a86.251,86.251,0,0,1-37.837,31.158,85.452,85.452,0,0,1-33.474,6.758Zm241.8-40.3a70.079,70.079,0,0,0,70-70v-217a70.079,70.079,0,0,0-70-70h-217a70.079,70.079,0,0,0-70,70v217a70.079,70.079,0,0,0,70,70h31.288c.161-3.5.521-6.748.933-7.264a20.647,20.647,0,0,1,2.942-2.232c1.521-1.116,2.333-1.927,2.333-2.434s-.1-.71-.406-.507c-.3.1-.406,0-.3-.305s-.608-1.623-1.522-2.941c-3.956-5.274-3.245-8.52,3.043-15.519,4.869-5.376,19.171-22.72,22.112-26.879,3.043-4.26,3.043-4.868,1.724-13.287-1.116-7.3-.913-8.317,1.927-10.346,4.057-2.84,8.014-6.9,9.129-9.535,2.13-4.462,4.057-10.852,6.289-20.488,2.941-12.172,2.941-12.172,3.854-18.46,2.637-16.939,3.449-29.416,3.449-53.049,0-17.953,0-18.562-.812-19.068a4.419,4.419,0,0,0-2.129-.71,144.524,144.524,0,0,1-16.736-2.84c-5.68-1.522-11.259-3.955-12.982-5.579-2.13-2.028-2.232-3.955-.305-5.578,1.624-1.318,5.681-3.347,9.738-4.869,3.448-1.318,3.854-1.927,2.535-4.057-.608-.811-.608-1.014,0-1.927,1.42-2.13,5.376-3.854,9.839-4.26l2.739-.3.1-4.971.2-4.97-1.724-.608c-2.435-1.014-3.651-2.637-3.651-4.971a5.149,5.149,0,0,1,3.347-5.172l1.623-.71-.2-6.9c-.608-17.04-3.043-26.98-9.027-37.529-2.333-4.26-3.551-5.882-5.173-6.9-1.319-.913-1.522-1.218-1.522-2.435,0-1.928,1.319-4.666,2.536-5.477a16.535,16.535,0,0,1,2.84-1.116,5.071,5.071,0,0,0,1.927-.811c0-.608,3.753.913,7,3.043,2.232,1.318,2.941,1.217,4.97-1.116,2.029-2.435,3.449-3.145,6.087-3.145a18.636,18.636,0,0,1,7.505,2.84l1.218.913.4-.913c.2-.609.609-4.463,1.014-8.622.71-8.621.913-9.433,3.956-11.461a14.128,14.128,0,0,1,13.9-.406c3.55,2.13,4.057,3.347,4.666,12.476.3,4.565.71,7.506,1.116,7.912.507.71.507.71,1.623,0,3.956-2.435,7.3-3.245,10.041-2.333a8.407,8.407,0,0,1,3.145,2.536c1.318,1.521,2.029,1.927,2.941,1.927,1.116,0,4.97-1.927,7.506-3.753.913-.71,1.724-1.014,2.231-.812,1.42.406,3.347,2.232,5.072,4.869,1.927,2.941,2.029,2.637-1.724,7.607a73.5,73.5,0,0,0-8.013,13.491,80.472,80.472,0,0,0-4.057,16.025c-.507,4.463-1.318,19.779-1.014,20.286a1.417,1.417,0,0,0,.913.3,5.951,5.951,0,0,1,2.029.812c1.522.913,2.232,3.347,1.724,5.578-.4,1.724-2.435,3.753-3.753,3.753-1.115,0-1.521,1.724-1.521,5.883,0,4.97.1,5.072,2.434,5.072,3.448,0,7.708,1.522,9.839,3.651,1.319,1.218,1.419,1.623.507,3.145a3.086,3.086,0,0,0-.507,1.826c.1.3,2.434,1.42,5.072,2.535,5.376,2.13,7.708,3.55,8.723,5.376.913,1.623.507,2.84-1.522,4.565-2.84,2.333-11.766,5.477-18.663,6.492-1.521.3-4.462.71-6.491,1.013a31.692,31.692,0,0,1-4.971.609,2.183,2.183,0,0,0-1.521.507c-.508.71-.3,28.806.2,39.051.812,14.809,2.536,30.429,4.869,41.789,2.333,11.767,6.694,27.082,8.925,31.444,1.015,1.927,3.855,4.766,7.608,7.607a18.716,18.716,0,0,1,3.347,2.942c.608,1.115.508,5.578-.1,8.013a21.71,21.71,0,0,0-.913,8.419c.2,1.927.71,2.739,3.245,6.187,1.624,2.232,3.956,5.072,5.072,6.391,1.115,1.419,2.738,3.448,3.651,4.564.913,1.218,3.043,3.753,4.868,5.782,1.724,2.029,4.261,4.869,5.477,6.39s3.145,3.855,4.361,5.173c2.333,2.739,3.956,5.984,3.956,7.608,0,1.724-.812,3.55-2.942,6.085-2.535,3.044-2.535,4.057,0,5.478,3.347,2.007,3.358,1.581,3.348,9.6Z" fill="#232438"/>
</svg>
