<svg xmlns="http://www.w3.org/2000/svg" width="746.398" height="219.295" viewBox="0 0 746.398 219.295">
  <g id="Gruppe_90" data-name="Gruppe 90" transform="translate(-3935.204 -15136.204)">
    <path id="Pfad_285" data-name="Pfad 285" d="M35,0H143.5a35,35,0,0,1,35,35V143.5a35,35,0,0,1-35,35H35a35,35,0,0,1-35-35V35A35,35,0,0,1,35,0Z" transform="translate(3955.602 15156.852)" fill="none"/>
    <path id="Vereinigungsmenge_12" data-name="Vereinigungsmenge 12" d="M43,219.3a42.8,42.8,0,0,1-24.041-7.344A43.126,43.126,0,0,1,3.379,193.033,42.726,42.726,0,0,1,0,176.3V43A42.8,42.8,0,0,1,7.344,18.958,43.126,43.126,0,0,1,26.262,3.379,42.728,42.728,0,0,1,43,0H176.3a42.8,42.8,0,0,1,24.041,7.344,43.126,43.126,0,0,1,15.579,18.918A42.728,42.728,0,0,1,219.3,43V176.3a42.8,42.8,0,0,1-7.344,24.041,43.126,43.126,0,0,1-18.918,15.579A42.726,42.726,0,0,1,176.3,219.3Zm120.9-20.148a35.04,35.04,0,0,0,35-35V55.647a35.04,35.04,0,0,0-35-35H55.4a35.04,35.04,0,0,0-35,35v108.5a35.04,35.04,0,0,0,35,35H71.041a12.977,12.977,0,0,1,.467-3.632,10.324,10.324,0,0,1,1.471-1.116c.76-.558,1.166-.963,1.166-1.217s-.051-.355-.2-.253c-.152.05-.2,0-.152-.153a3.851,3.851,0,0,0-.761-1.471c-1.978-2.637-1.623-4.26,1.521-7.759,2.435-2.688,9.585-11.36,11.056-13.44,1.521-2.13,1.521-2.434.862-6.643-.558-3.652-.456-4.158.963-5.173,2.029-1.42,4.007-3.449,4.564-4.768a52.378,52.378,0,0,0,3.145-10.244,71.171,71.171,0,0,0,1.927-9.23c1.318-8.469,1.724-14.708,1.724-26.524,0-8.977,0-9.281-.406-9.534a2.21,2.21,0,0,0-1.065-.355,72.262,72.262,0,0,1-8.368-1.42c-2.84-.761-5.63-1.978-6.491-2.79-1.065-1.014-1.116-1.978-.153-2.789A21.353,21.353,0,0,1,87.179,88.2c1.724-.659,1.927-.963,1.268-2.029-.3-.405-.3-.507,0-.963.71-1.065,2.688-1.927,4.919-2.13l1.369-.152.051-2.485.1-2.485-.862-.3a2.714,2.714,0,0,1-.152-5.072l.811-.355-.1-3.449c-.3-8.52-1.521-13.49-4.513-18.765-1.166-2.13-1.775-2.941-2.587-3.448-.659-.457-.761-.609-.761-1.217a3.993,3.993,0,0,1,1.268-2.739,8.267,8.267,0,0,1,1.42-.558,2.535,2.535,0,0,0,.963-.405c0-.3,1.876.456,3.5,1.521,1.116.659,1.471.608,2.485-.558A3.421,3.421,0,0,1,99.4,41.037a9.318,9.318,0,0,1,3.753,1.42l.609.456.2-.456c.1-.3.3-2.232.507-4.311.355-4.311.457-4.716,1.978-5.731a7.064,7.064,0,0,1,6.948-.2c1.775,1.065,2.029,1.674,2.333,6.238a13.381,13.381,0,0,0,.558,3.956c.253.355.253.355.811,0,1.978-1.217,3.651-1.623,5.021-1.166a4.2,4.2,0,0,1,1.572,1.268c.659.761,1.014.963,1.471.963a11.45,11.45,0,0,0,3.753-1.876c.456-.355.862-.507,1.116-.406a5.821,5.821,0,0,1,2.536,2.435c.963,1.471,1.014,1.319-.862,3.8a36.752,36.752,0,0,0-4.006,6.746,40.236,40.236,0,0,0-2.029,8.013c-.253,2.232-.659,9.89-.507,10.143a.708.708,0,0,0,.456.152,2.975,2.975,0,0,1,1.014.406,2.644,2.644,0,0,1,.862,2.789c-.2.862-1.217,1.876-1.877,1.876-.558,0-.76.862-.76,2.942,0,2.485.051,2.536,1.217,2.536A7.7,7.7,0,0,1,131,84.855c.659.609.71.811.253,1.572a1.543,1.543,0,0,0-.253.913,11.557,11.557,0,0,0,2.536,1.268c2.688,1.065,3.854,1.775,4.361,2.688.456.811.253,1.42-.761,2.282-1.42,1.166-5.883,2.739-9.332,3.246-.76.152-2.231.355-3.245.507a15.846,15.846,0,0,1-2.485.3,1.091,1.091,0,0,0-.76.253c-.254.355-.152,14.4.1,19.525a154.119,154.119,0,0,0,2.435,20.894c1.166,5.883,3.347,13.541,4.463,15.722a14.6,14.6,0,0,0,3.8,3.8,9.358,9.358,0,0,1,1.674,1.471,8.889,8.889,0,0,1-.051,4.006,10.855,10.855,0,0,0-.456,4.209c.1.963.355,1.369,1.623,3.093.812,1.116,1.978,2.536,2.536,3.2.558.71,1.369,1.724,1.826,2.282.456.609,1.521,1.876,2.434,2.891.862,1.014,2.13,2.435,2.739,3.2s1.572,1.927,2.181,2.587a7.778,7.778,0,0,1,1.978,3.8,4.857,4.857,0,0,1-1.471,3.042c-1.268,1.522-1.268,2.029,0,2.739,1.673,1,1.679.791,1.674,4.8Z" transform="translate(3935.205 15136.204)" fill="#f5f0f1"/>
    <text id="GUESS_THE_MOVE" data-name="GUESS 
THE MOVE" transform="translate(4219.603 15237.102)" fill="#f5f0f1" font-size="83" font-family="Montserrat-Bold, Montserrat" font-weight="700"><tspan x="0" y="0">GUESS </tspan><tspan x="0" y="77">THE MOVE</tspan></text>
  </g>
</svg>
